<svg xmlns="http://www.w3.org/2000/svg" width="48" height="34" viewBox="0 0 48 34"><g><g><path fill="#444" d="M47.591.469C34.426-.507 25.84 2.017 24 2.025 22.16 2.017 13.575-.507.409.469c-.41.578.273 3.112.273 3.112s.59-.045 1 .622c.409.667.455 1.289 1.273 3.422.818 2.133 1.183 6.8 9.277 6.8 7.048 0 9.05-5.555 9.55-6.577.483-.99 1.161-2.878 2.218-2.878 1.056 0 1.735 1.888 2.219 2.878.5 1.022 2.5 6.577 9.55 6.577 8.093 0 8.458-4.667 9.276-6.8.818-2.133.864-2.755 1.273-3.422.41-.667 1-.622 1-.622S48 1.047 47.591.469zM3.216 1.857a.686.686 0 0 1-.694.678.686.686 0 0 1-.693-.678c0-.375.31-.678.693-.678.383 0 .694.303.694.678zm17.204 4.68c-.75 4.332-3.477 6.599-9.072 6.599-7.118 0-6.753-5.665-6.958-8.4-.204-2.733 2.366-3.082 3.002-3.067 2.842.115 7.23.267 7.98.4s5.798.133 5.048 4.467zm23.077-1.801c-.205 2.735.16 8.4-6.958 8.4-5.594 0-8.321-2.267-9.072-6.6-.75-4.334 4.297-4.334 5.048-4.466.75-.134 5.138-.286 7.98-.4.636-.016 3.207.333 3.002 3.066zm3.022-2.879a.686.686 0 0 1-.694.678.686.686 0 0 1-.694-.678c0-.375.311-.678.694-.678.383 0 .694.303.694.678zM6.065 29.27c.826 4.73 5.712 4.406 9.161 3.248 2.635-.884 6.06-2.32 7.935-3.773.668-.518.993-1.069 1.124-1.64.13.571.455 1.122 1.123 1.64 1.875 1.452 5.3 2.89 7.935 3.773 3.45 1.158 8.336 1.482 9.16-3.248.341-1.944-.338-4.554-.338-3.89 0 .665-1.02 2.279-1.069 1.946-.048-.333-.485-1.234-.485-1.234s.195 2.134-1.892 2.324c-2.548.232-3.497-4.483-5.324-6.439-2.87-3.07-8.303-.469-9.018 3.11-.033.17-.066.34-.092.51a12.342 12.342 0 0 0-.093-.51c-.715-3.579-6.148-6.18-9.018-3.11-1.827 1.956-2.776 6.67-5.323 6.439-2.088-.19-1.894-2.324-1.894-2.324s-.437.901-.485 1.234c-.048.333-1.067-1.281-1.067-1.945 0-.665-.68 1.945-.34 3.889z"/></g></g></svg>